<?xml version="1.0" encoding="utf-8"?>
<svg width="200" height="140" fill="none" xmlns="http://www.w3.org/2000/svg"><path d="M47 79.4l31-45h56l-34 52m0 0H51m49 0L72 20H62h28.5m66.2 59a6.9 6.9 0 1 0 0 13.8 6.9 6.9 0 0 0 0-13.8zm0 0l-22.2-44.6V20H155c3.8 0 6.9 3.2 6.9 7s-3.1 7-6.9 7h-2.5M77.6 85.9c0 18.943-15.357 34.3-34.3 34.3C24.357 120.2 9 104.843 9 85.9c0-18.943 15.357-34.3 34.3-34.3 18.943 0 34.3 15.357 34.3 34.3zm113.4 0c0 18.943-15.357 34.3-34.3 34.3-18.943 0-34.3-15.357-34.3-34.3 0-18.943 15.357-34.3 34.3-34.3 18.943 0 34.3 15.357 34.3 34.3zm-140.8 0a6.9 6.9 0 1 1-13.8 0 6.9 6.9 0 0 1 13.8 0z" stroke="#FEC74B" stroke-width="4" stroke-miterlimit="10" stroke-linecap="round" stroke-linejoin="round"/></svg>