<?xml version="1.0" encoding="utf-8"?>
<svg width="200" height="140" fill="none" xmlns="http://www.w3.org/2000/svg"><path d="M50.5 89.5h49m0 0L89.306 74M99.5 89.5c4.5-13.667 18.9-41 40.5-41M75.496 53L63 34m12.496 19C69 56 52 71 47 83.5M75.496 53l13.81 21M63 34H53m10 0h18m8.306 40C94.5 60.5 108.3 34 133.5 34H157m-44-19h11l4.4 9M156 82.5L137.689 43m0 0H160l-6-19h-25.6m9.289 19L128.4 24M78 89.5c0 19.054-15.446 34.5-34.5 34.5C24.446 124 9 108.554 9 89.5 9 70.446 24.446 55 43.5 55 62.554 55 78 70.446 78 89.5zm-28 0a6.5 6.5 0 1 1-13 0 6.5 6.5 0 0 1 13 0zm141 0c0 19.054-15.446 34.5-34.5 34.5-19.054 0-34.5-15.446-34.5-34.5 0-19.054 15.446-34.5 34.5-34.5 19.054 0 34.5 15.446 34.5 34.5zm-28 0a6.5 6.5 0 1 1-13 0 6.5 6.5 0 0 1 13 0z" stroke="#FEC74B" stroke-width="4" stroke-linecap="round" stroke-linejoin="round"/></svg>