<?xml version="1.0" encoding="utf-8"?>
<svg width="200" height="140" fill="none" xmlns="http://www.w3.org/2000/svg"><path d="M45.5 95c-9.665 0-17.5 7.835-17.5 17.5S35.835 130 45.5 130 63 122.165 63 112.5 55.165 95 45.5 95zm0 0c10.1-34.1 42.6-59 80-59m0 0C99.819 36 79 56.819 79 82.5S99.819 129 125.5 129 172 108.181 172 82.5 151.181 36 125.5 36zm0 0h.5c10 0 10-16 0-16h-19l12-11M79 50V38H60v29m-8 45.5a6.5 6.5 0 1 1-13 0 6.5 6.5 0 0 1 13 0zm80-30a6.5 6.5 0 1 1-13 0 6.5 6.5 0 0 1 13 0z" stroke="#FEC74B" stroke-width="4" stroke-miterlimit="10" stroke-linecap="round" stroke-linejoin="round"/></svg>