<?xml version="1.0" encoding="utf-8"?>
<svg width="32" height="32" fill="none" xmlns="http://www.w3.org/2000/svg"><path fill-rule="evenodd" clip-rule="evenodd" d="M12.276 31.597c0 .223.18.403.403.403h5.745c.223 0 .403-.18.403-.403V15.874h4.165c.21 0 .384-.16.402-.37l.4-4.736a.403.403 0 0 0-.401-.437h-4.566V6.97c0-.788.638-1.427 1.426-1.427h3.21c.223 0 .403-.18.403-.403V.403A.403.403 0 0 0 23.463 0H18.04a5.763 5.763 0 0 0-5.763 5.763v4.568H9.403a.403.403 0 0 0-.403.402v4.738c0 .223.18.403.403.403h2.873v15.723z" fill="#FEC63E"/></svg>