<?xml version="1.0" encoding="utf-8"?>
<svg width="32" height="32" fill="none" xmlns="http://www.w3.org/2000/svg"><path d="M28.981 22.361a6.62 6.62 0 0 1-6.62 6.62H9.639a6.62 6.62 0 0 1-6.62-6.62V9.638a6.62 6.62 0 0 1 6.62-6.62h12.722a6.62 6.62 0 0 1 6.62 6.62v12.723zM32 9.638C32 4.315 27.684 0 22.36 0H9.64C4.315 0 0 4.315 0 9.638v12.723C0 27.684 4.316 32 9.64 32h12.72A9.64 9.64 0 0 0 32 22.36V9.638zm-15.946 11.63a5.068 5.068 0 0 1-5.062-5.062 5.068 5.068 0 0 1 5.062-5.062 5.067 5.067 0 0 1 5.062 5.062 5.067 5.067 0 0 1-5.062 5.062zm0-12.964c-4.357 0-7.902 3.545-7.902 7.902 0 4.358 3.545 7.902 7.902 7.902 4.358 0 7.903-3.544 7.903-7.902 0-4.357-3.545-7.902-7.903-7.902zm8.364-2.413a1.881 1.881 0 1 0 0 3.763 1.881 1.881 0 0 0 0-3.763z" fill="#FEC63E"/></svg>