<?xml version="1.0" encoding="utf-8"?>
<svg width="100" height="62" fill="none" xmlns="http://www.w3.org/2000/svg"><path d="M9.125 9.562c1.563-.062 5.375-.187 7.313-.625-.063.813-.188 3.313-.188 8.063v2.125c1.75-1.438 3.188-2.188 4.938-2.188 2.125 0 3.562.938 4.5 2.313.812 1.313 1.25 3.125 1.25 5.063 0 5.812-2.75 9.125-8.313 9.125-1.5 0-3.313-.5-4.375-1.063-.75.25-1.75.75-2.75 1.063l-.313-.188c.063-1.688.063-4.875.063-9.188v-8c0-2-.063-3.375-.125-4.562-.063-.813-.25-.938-2.125-.938l.125-1zm9.5 22.688c2.125 0 3.125-2.563 3.125-7.313 0-1.937-.313-3.562-.875-4.625-.5-.812-1.125-1.25-2-1.25-.938 0-1.75.563-2.313 1.375-.312.438-.437.813-.437 5.75 0 4.063.188 4.188.438 4.688.437.938 1.25 1.375 2.062 1.375zm19.25.813c-1.313 0-2.625-.126-4.688-.126-2.187 0-3.25.126-4.312.126V32c1.75-.063 2-.375 2.063-1.063.062-.75.125-1.937.125-3.875v-4c0-1.625 0-2.937-.063-3.5-.063-.562-.313-.75-1.938-.687v-1.063c2.188-.187 4.813-.25 6.938-.687-.063.813-.125 2.313-.125 5.75v4.313c0 2 .063 2.875.125 3.75.063.875.313 1 1.875 1.187v.938zM33.187 9.875c1.626 0 2.563.938 2.563 2.625 0 1.438-1.063 2.438-2.688 2.438-1.437 0-2.437-1-2.437-2.438 0-1.5 1-2.625 2.563-2.625zm6.313-.313c2.438-.062 5.313-.312 6.813-.625a235.542 235.542 0 0 0-.126 7.75V24.5c1.188-.313 3.75-3.438 4.75-5.25.188-.375.188-.563-.312-.563l-1.375-.125V17.5c2.313.063 4.688-.063 7.063-.188v1.063c-1.75.188-2.438.313-3.126.875-.937.813-2 1.938-3 3.125.75 1.563 3.876 7.313 5.063 8.875.375.563.938.75 1.563.75l.874.063-.062 1.062c-3 0-5.563.125-6.938.375-.75-1.75-3-6-3.687-7.313-.375-.687-.563-.937-.813-.875 0 2.563-.062 3.813.063 5.625.063.813.25 1.063 1.938 1.125v1.063c-1.188 0-2.438-.125-4.5-.125-2.438 0-3.5.125-4.438.125v-1.063c1.625-.062 1.875-.374 1.938-1 .062-.75.124-2.375.124-5.625v-8.062c0-2.563 0-4.5-.062-6.125 0-.375-.25-.563-.75-.563h-1.063l.063-1.125zM24.438 48.5c-1.063 3.375-3.125 5-6.563 5-2.938 0-4.813-.813-6.125-2.563-1-1.312-1.5-3.25-1.5-5.437 0-4.813 2.938-8.5 8.313-8.5 3.25 0 5.625 1.5 5.625 3.938 0 1.687-1.375 2.374-2.5 2.374-.375 0-.938-.124-1.25-.312-.375-.25-.563-.625-.438-1.125.063-.5.188-.813.188-1.313 0-1.562-.563-2.312-1.75-2.312-1.938 0-2.938 2.813-2.938 6.688 0 1.562.188 3.312.75 4.374.625 1.438 1.625 2.25 3.125 2.25 1.875 0 3.063-1.062 3.938-3.5l1.125.438zM28 43.938c0-2-.063-3.563-.188-4.376-.062-.437-.312-.624-.75-.624h-1.125v-1.063c1.875-.063 4.438-.188 6.25-.75l.188.125c.125.75.25 2.563.313 3.688h.124C33.626 38.75 34.75 37 37.063 37c1.313 0 2.313 1.063 2.313 2.5 0 2.063-1.563 2.688-2.188 2.688-.624 0-1.062-.188-1.25-.626-.312-.687-.5-1.062-1.124-1.062-.688 0-1.063.625-1.5 1.625-.188.563-.313 1.188-.313 2.25 0 3.563 0 5.563.063 6.438.062.874.374 1.124 2.874 1.187l-.062 1.063c-1.75-.063-3.313-.126-5.125-.126-1.875 0-3.25.063-4.813.126L26.125 52c1.5-.063 1.875-.25 1.875-.875.063-.875.125-2.563.125-4.5v-2.688H28zm21.188-2.875c0-1.876-.626-2.876-1.876-2.876-1.437 0-2.124.813-2.124 2.313 0 .438.062.813.124 1.188.063.374-.062.75-.374.937-.438.313-1.188.563-1.75.563C42 43.188 41 42.624 41 41.25c0-2 2.938-4.25 7.063-4.25 3.374 0 4.874 1.375 5.437 2.25.313.5.5 1.063.5 1.688v9.187c0 1.063.313 1.313.688 1.313.5 0 1.062-.813 1.312-2.188l1.063.5c-.563 2.688-2.188 3.813-4.438 3.813-1.938 0-3-.813-3.313-2.438-1.5 1.5-3.062 2.438-4.687 2.438-2.625 0-4.375-1.75-4.375-4.626 0-1.75.75-2.75 2.063-3.312 2.124-.938 5.312-1.875 6.874-3v-1.563zM45.25 48c0 1.375.563 2.875 1.938 2.875 1 0 1.437-.625 1.75-1.25.124-.313.187-.875.187-1.5v-4.25c-.688.438-1.75.938-2.563 1.438-.75.5-1.312 1.124-1.312 2.687zm12.375-10.437l2 .062v-1c.063-2.625.688-4.563 2.063-5.938 1.25-1.25 2.75-1.875 4.562-1.875 2.563 0 3.938 1.25 3.938 2.875 0 1.188-1 2-2.376 2-.75 0-1.25-.5-1.25-1.25 0-1.312-.187-2.374-1.124-2.374-.626 0-1 .562-1.126 1.625-.124 1 .063 2.875.188 5.812h3.063l-.188 1.25-2.875.188c-.063 1.187-.063 3.25-.063 5.687 0 2.313 0 4.375.063 6 .063.813.188 1.125.875 1.188.625.062 1.125.124 1.688.124L66.936 53c-1.187 0-3.062-.125-4.687-.125-1.688 0-3.688.125-4.813.125l.063-1.063c1.625-.062 1.875-.25 1.938-.937.124-1.063.124-2.688.124-4.875v-7.25l-2.124-.125.187-1.188z" fill="#000"/><path d="M79.063 37.563l-.126 1.187-3.812.25c0 1.313-.063 3.25-.063 5.875 0 2.75 0 4.625.126 5.75.062.813.374 1.188 1 1.188 1.312 0 2.124-1.438 2.437-2.75h.5l.438 1.437c-.75 1.813-2.626 3.063-5.376 3.063-1.5 0-2.812-.5-3.437-1.25-.438-.563-.625-1.25-.625-2.25 0-2.563.125-8.313.125-11.063l-2-.188.125-1.187h1.875c.063-1.188.063-2.563.063-3.813C72.5 33.25 74.124 32.563 75 32l.375.063a110.77 110.77 0 0 0-.188 5.562h3.876v-.063z" fill="#000"/><path d="M95 5v52H5V5h90zm5-5H0v62h100V0z" fill="#000"/></svg>