<?xml version="1.0" encoding="utf-8"?>
<svg xmlns="http://www.w3.org/2000/svg" width="200" height="123" viewBox="0 0 200 123"><g transform="translate(0 -1)"><path d="M9.25,10.187c3.126-.124,10.751-.374,14.628-1.25-.126,1.626-.376,6.626-.376,16.125v4.25c3.5-2.876,6.377-4.376,9.877-4.376a10.3,10.3,0,0,1,9,4.626,19.609,19.609,0,0,1,2.5,10.126c0,11.623-5.5,18.249-16.628,18.249A20.975,20.975,0,0,1,19.5,55.811c-1.5.5-3.5,1.5-5.5,2.126l-.626-.376c.126-3.376.126-9.75.126-18.375v-16c0-4-.126-6.75-.25-9.124-.126-1.626-.5-1.876-4.251-1.876Zm19,45.374c4.251,0,6.251-5.126,6.251-14.625a20.641,20.641,0,0,0-1.75-9.25,4.508,4.508,0,0,0-4-2.5,5.757,5.757,0,0,0-4.627,2.75c-.624.876-.874,1.626-.874,11.5,0,8.126.376,8.376.876,9.376A4.5,4.5,0,0,0,28.252,55.561Zm38.5,1.626c-2.626,0-5.251-.252-9.377-.252-4.375,0-6.5.252-8.625.252V55.061c3.5-.126,4-.75,4.126-2.126.124-1.5.25-3.874.25-7.75v-8c0-3.25,0-5.874-.126-7s-.626-1.5-3.876-1.374V26.686c4.377-.374,9.627-.5,13.878-1.374-.126,1.626-.25,4.626-.25,11.5v8.626c0,4,.126,5.75.25,7.5s.626,2,3.75,2.374ZM57.38,10.813c3.252,0,5.127,1.876,5.127,5.25,0,2.876-2.126,4.876-5.377,4.876a4.659,4.659,0,0,1-4.875-4.876,4.955,4.955,0,0,1,5.127-5.25Zm12.627-.626a92.2,92.2,0,0,0,13.628-1.25q-.254,7.747-.252,15.5V40.062c2.376-.626,7.5-6.876,9.5-10.5.376-.75.376-1.126-.624-1.126l-2.75-.25V26.062c4.627.126,9.377-.126,14.128-.376v2.126c-3.5.376-4.877.626-6.253,1.75a58.49,58.49,0,0,0-6,6.25c1.5,3.126,7.753,14.625,10.127,17.749a3.485,3.485,0,0,0,3.126,1.5l1.748.126-.124,2.124a92.689,92.689,0,0,0-13.878.75c-1.5-3.5-6-12-7.375-14.625-.75-1.374-1.126-1.874-1.626-1.75,0,5.126-.124,7.626.126,11.249.126,1.626.5,2.126,3.876,2.25v2.126c-2.376,0-4.877-.25-9-.25-4.877,0-7,.25-8.877.25V55.185c3.25-.124,3.75-.748,3.876-2,.124-1.5.248-4.75.248-11.249V25.812c0-5.126,0-9-.124-12.249q0-1.125-1.5-1.126H69.881ZM39.88,88.059c-2.126,6.75-6.251,10-13.128,10-5.877,0-9.627-1.626-12.251-5.126-2-2.624-3-6.5-3-10.874,0-9.626,5.877-17,16.628-17,6.5,0,11.251,3,11.251,7.876,0,3.374-2.75,4.748-5,4.748a5.674,5.674,0,0,1-2.5-.624A1.953,1.953,0,0,1,31,74.81a18.826,18.826,0,0,0,.376-2.626c0-3.124-1.126-4.624-3.5-4.624C24,67.56,22,73.186,22,80.936c0,3.124.376,6.624,1.5,8.748,1.25,2.876,3.25,4.5,6.251,4.5,3.75,0,6.127-2.124,7.877-7ZM47,78.936a69.823,69.823,0,0,0-.376-8.752,1.317,1.317,0,0,0-1.5-1.248h-2.25V66.81c3.75-.126,8.877-.376,12.5-1.5l.376.25c.25,1.5.5,5.126.626,7.376h.248c1.628-4.376,3.876-7.876,8.5-7.876a4.711,4.711,0,0,1,4.627,5c0,4.126-3.126,5.376-4.377,5.376a2.421,2.421,0,0,1-2.5-1.252c-.624-1.374-1-2.124-2.248-2.124-1.376,0-2.126,1.25-3,3.25a13.268,13.268,0,0,0-.626,4.5c0,7.126,0,11.125.126,12.875s.748,2.248,5.749,2.374l-.124,2.126c-3.5-.126-6.627-.252-10.251-.252-3.75,0-6.5.126-9.627.252l.374-2.126c3-.126,3.75-.5,3.75-1.75.126-1.75.25-5.126.25-9V78.934H47Zm42.381-5.75c0-3.752-1.252-5.752-3.752-5.752-2.874,0-4.248,1.626-4.248,4.626a13.952,13.952,0,0,0,.248,2.376,1.78,1.78,0,0,1-.748,1.874,6.834,6.834,0,0,1-3.5,1.126c-2.376,0-4.377-1.128-4.377-3.876,0-4,5.877-8.5,14.128-8.5,6.749,0,9.749,2.75,10.875,4.5a6.28,6.28,0,0,1,1,3.376V91.309c0,2.126.626,2.626,1.376,2.626,1,0,2.124-1.626,2.624-4.376l2.126,1c-1.126,5.376-4.377,7.626-8.877,7.626-3.876,0-6-1.626-6.627-4.876-3,3-6.125,4.876-9.375,4.876-5.251,0-8.751-3.5-8.751-9.252,0-3.5,1.5-5.5,4.126-6.624,4.248-1.876,10.625-3.75,13.75-6V73.184ZM81.509,87.059c0,2.75,1.126,5.75,3.876,5.75,2,0,2.874-1.25,3.5-2.5a9.285,9.285,0,0,0,.374-3v-8.5c-1.376.876-3.5,1.876-5.127,2.876C82.633,82.686,81.509,83.934,81.509,87.059Zm24.753-20.873,4,.124v-2c.126-5.25,1.376-9.126,4.126-11.875a12.356,12.356,0,0,1,9.125-3.75c5.127,0,7.877,2.5,7.877,5.75,0,2.376-2,4-4.753,4a2.362,2.362,0,0,1-2.5-2.5c0-2.624-.374-4.748-2.248-4.748-1.252,0-2,1.124-2.252,3.25-.248,2,.126,5.75.376,11.623h6.127l-.376,2.5-5.751.376c-.126,2.374-.126,6.5-.126,11.373,0,4.626,0,8.75.126,12,.126,1.626.376,2.25,1.75,2.376a33.34,33.34,0,0,0,3.376.248l-.254,2.126c-2.374,0-6.125-.25-9.375-.25-3.376,0-7.377.25-9.627.25l.126-2.126c3.25-.124,3.75-.5,3.876-1.874.248-2.126.248-5.376.248-9.75V68.81l-4.248-.25.374-2.376Z" transform="translate(9.002 8.939)" fill="#fec63e"/><path d="M89.879,43.127,89.627,45.5,82,46c0,2.626-.126,6.5-.126,11.751,0,5.5,0,9.251.252,11.5.124,1.626.748,2.376,2,2.376,2.624,0,4.249-2.876,4.875-5.5h1L90.879,69c-1.5,3.626-5.253,6.127-10.753,6.127-3,0-5.625-1-6.875-2.5A6.887,6.887,0,0,1,72,68.13C72,63,72.25,51.5,72.25,46l-4-.376.25-2.374h3.75c.126-2.376.126-5.127.126-7.627A34.551,34.551,0,0,0,81.752,32l.75.126q-.328,5.557-.376,11.125h7.753v-.126Z" transform="translate(68.248 31.993)" fill="#fec63e"/><path d="M190,9.919V113.081H10V9.919ZM200,0H0V123H200Z" transform="translate(0 1)" fill="#fec63e"/></g></svg>